<?xml version="1.0" encoding="UTF-8"?>
<svg id="Layer_1" data-name="Layer 1" xmlns="http://www.w3.org/2000/svg" viewBox="0 0 471.2 253.6">
  <defs>
    <style>
      .cls-1 {
        fill: #729bf7;
      }

      .cls-1, .cls-2, .cls-3, .cls-4 {
        stroke-width: 0px;
      }

      .cls-2 {
        fill: #000;
      }

      .cls-3 {
        fill: #6680ff;
      }

      .cls-4 {
        fill: #fff;
      }
    </style>
  </defs>
  <path class="cls-2" d="M432.5,214.05c-4.17-.29-8.84-2.78-12.34-5.61-.59-.39-1.5-1.44-2.19-1.04-1.22.98.75,11.96.03,18.53-.04,8.94-9.33,8.91-11.26,16.77-1.39,5.57-7.76,6.21-13.14,7.7-4.84,1.16-9.65,2.82-14.58,3.19-27.49-1.12-6.22-37.55-23.25-34.25-9.75,1.27-21.62,5.58-31.88,5.41-13.4-1.25-14.58-16.22-19.91-14.18-4.51,2.08-8.67,6.44-13.39,9.25-10.91,7.25-24.39,9.81-37.56,7.93-10.01-1.27-13.9-4.6-19.75-6.55-2.57-.03-4.13,1.38-7.05,2.77-11.1,5.86-22.97,10.06-35.54,6.01-20.45-5.7-23.75-25.7-24.93-16.19-1.38,8.19-3.48,12.81-12.8,13.51-7.79.93-18.02,3.15-26.16,3.43-9.23.18-11.83-11.56-21.3-11.12-9.91-1-22.2-.42-31.82-1.35-12.31-1.96-30.09-11.04-39.39-15.54C6.66,188.64-3.79,149.16,1.2,123.78c3.69-23.94,23.08-51.04,46.49-55.43,2.54-.73,4.65-.5,6.83-1.24.83-.45,1.08-2,1.14-5.41.07-5.87-.04-12.11-.34-18.03-.65-12.63-2.89-32.32,12.33-37.22,11.47-2.29,31.55-4.25,43.36-6.09,3.49-.53,7.98-1.15,8.7,3.32,2.03,7.45,1.84,27.57,1.87,38.04-.04,1.32.14,3.71,1.68,2.69,1.96-1.32,3.79-3.82,6.32-5.15,9.47-4.96,25.72-6.06,36.06-7.72,3.87-.51,8.05-.22,9.1,4.28,2.56,9.9-.42,23.46-2.4,33.3-.67,3.18-.86,4.64.25,4.22,3.35-1.72,8.31-6.07,12.96-7.58,5.64-2.24,11.83-3.25,17.82-3.64,9.2-.41,18.78-1.47,23.52,7.79,2,3.19,4.08,4.33,7.89,2.27,25.42-14.87,53.33-.83,64.99,10.16,3.09,2.73,1.83-6.35,2.68-10.61.96-8.6,3.82-17.33,5.64-25.59,1.39-5.58,2.85-8.91,6.89-11.98,9.89-7.6,30.78-11.53,40.37-13.24,2.32-.37,4.53.07,6.35,1.49,3.76,2.99,6.13,7.58,5.74,12.36-.22,9.81-.87,34.42-1.14,45.84.31,2.72-.96,7.04,2.18,8.04,8.14.85,23.59-8.7,31.64-6.34,3.34,1.58,4.47,6.24,7.69,7.92,3.37,1.26,6.81,0,10.7-1.09,8.08-3.14,17.11-2.19,25.09,1.39,36.49,19.3,32.08,76.36,13.91,103.23-5.94,8.86-17.01,20.1-24.83,20.29h-.18Z"/>
  <path class="cls-3" d="M126.19,169.86c-17.92-7.52-16.59-23.89-16.59-23.89-1-35.16,2.87-64.46,2.87-64.46,3.33-7.42.97-72.66.97-72.66-17.17,5.09-40.22,6.08-40.22,6.08-8.18,1.1-8.08,12.84-8.08,12.84v34.61c4.31,0,5.75-1.76,5.75-1.76,1.43-.9,2.21,1.88,2.21,1.88,0,0,.22,27.43.22,29.08s-.45,1.88-.45,1.88c-.33,1.99-2.99-6.09-2.99-6.09-5.85-18.69-32.72-8.06-32.72-8.06-9.51,3.19-21.57,21.23-21.57,21.23-11.94,21.01-7.4,40.35-7.4,40.35.22,27.1,23.78,49.77,23.78,49.77,9.39,7.51,20.78,7.4,20.78,7.4,9.63.22,16.59-3.43,16.59-3.43,10.08-4.2,18.59-14.03,18.59-14.03,6.2,7.73,17.24,9.39,17.24,9.39,17.26.9,22.07-9.73,22.07-9.73l-.04-8.73c.33-.99-1-1.66-1-1.66ZM56.47,168.26c-6.79-3.82-10.66-18.53-10.11-36.89.55-18.35,15.81-23.44,15.81-23.44,7.18,1.39,7.24,46.06,7.24,46.06,1.66,20.57-12.94,14.27-12.94,14.27Z"/>
  <path class="cls-4" d="M28.37,94.13s-6.69,2.21-11.11,15.98c0,0-4.98,17.97-1.38,17.09,0,0,14.49-30.85,15.92-31.3,0,0-.66-2.05-3.43-1.77Z"/>
  <path class="cls-4" d="M44.41,81.69s-9.62,3.54-11.61,5.31c0,0-1.44,2.76,1.44,1.88,0,0,13.71-6.36,14.54-6.41,0,0,1.82-2.88-4.37-.77Z"/>
  <path class="cls-4" d="M76.18,54.96s1.91,1.74,1.99,2.57c0,0-.08,36.16,1.82,35.66,0,0,8.05-34.5,5.39-38.24,0,0-2.9-3.15-9.21,0Z"/>
  <path class="cls-4" d="M73.44,17.33s-4.73,6.39-2.57,7.96c0,0,10.45,1.91,27.54-10.87,0,0-17.42.25-24.97,2.9Z"/>
  <path class="cls-1" d="M137.26,44.44c-6.27.93-12.36,7.58-13.5,14.31-.79,4.74-.29,13.07-.34,17.11.2,2.65,3.25.71,5.64,1.88,1.09.46,1.93,1.07,2.37,2.17-.06,4.79-5.66,27.72-6.93,60.25-.81,18.34.09,37.24.98,55.53.29,4.35.47,4.04.54,3.91,1.2,1.32,3.86,3.1,5.99,3.07,3.17.23,13.58.83,21.42-1.35,2.5-.88,5.44-1.26,5.34-3.35-.77-5.99-4.81-33.82-2.15-46.14.32-1.28.5-1.72.93-.87,2.94,6.03,22.82,45.84,35.81,48.78,4.22.54,8.4.95,12.48-1.06,3.69-1.68,13.28-5.76,14.73-10.05-.26-2.08-2.68-3.82-4-5.16-5.43-4.75-28.12-35.92-26.76-61.62,3.69-5.02,23.93-30.42,28.7-45.49.4-1.12,1.07-3.41.55-3.88-3.38-1.61-18.75-1.48-25-.32-2.8.37-6.34.87-9.18,1.5-.93.26-1.24.34-1.69.84-2.55,2.83-17.6,21.96-24.02,40.83-.44,1.25-.82,2.34-1.09,3.14-.53,1.55-.66,1.87-.66,1.43-.55-2.34,2.26-37.64,6.24-51.49,1.57-7.22,5.84-16.19,4.58-25.37-.29-1.69-.93-3.62-2.88-3.28-4.62.36-21.3,2.32-27.94,4.64l-.16.05Z"/>
  <path class="cls-4" d="M138.03,48.29c-4.04,1.15-9.57,4.08-10.25,8.28,1.59,5.06,20.29-2.17,22.02-4.38,5.45-5.57-8.63-4.89-11.47-3.97l-.29.07Z"/>
  <path class="cls-3" d="M309.09,125.87c-1.72-19.21-16.24-54.37-54.73-51.76h-.15c-27.14-.52-42.95,32.08-39.8,58.37,1.24,16.54,8.78,37.16,24.11,48.92,6.27,5.2,14.24,9.41,21.41,11.42,4.52.94,26.81,4.45,39.73-18.62,8-14.27,9.57-31.04,9.44-48.34ZM275.08,145.22c-3.57,26.68-17.47,25.16-24.56.16-2.21-9.64-3.73-19.33-.04-28.84,2.13-5.29,4.37-10.21,9.44-11.03l.19-.03c18.23.48,16.17,26.99,14.97,39.74Z"/>
  <path class="cls-4" d="M235.19,92.19c-.2-.57-1.94.97-4.14,3.86-4.13,5.12-9.27,14.66-10.74,21.99-.36,1.81-1.25,7.71.78,6.78,1.36-.55,4.66-10.41,6.99-15.68,2.23-6.07,5.7-11.44,7.13-16.91v-.05Z"/>
  <path class="cls-1" d="M328.53,34.82c-7.72,1.07-13.39,9.23-13.76,16.75-.4,3.87-1.29,14.03.09,19.42.31,1.14.68,2.19,1.48,2.98.97,1.01,2.81.65,4.43,1.11,1.24.25,2.96,1.33,2.68,2.7-.79,5.55-10.37,73.04-3.73,101.44.8,2.93,1.22,5.52,2.6,8.04,3.1,6.38,13.44,8.06,19.69,6.61,5.84-1.07,13.34-2.78,21.07-9.9,1.91-1.86,5.63-6.08,2.27-7.86-1.39-.83-3.27-.99-4.6-1.99-2.74-2.28-2.27-5.68-2.58-9.04-.6-10.88-1.44-35-.7-45.86.69-8.51,1.53-18.68,1.71-27.22.08-10.82.07-28.11-.07-47.3-.27-5.77.28-9.83-.62-14.15-.34-.26-.89-.24-1.42-.18-4.69.53-20.81,2.37-28.38,4.41l-.16.04Z"/>
  <path class="cls-4" d="M345.64,35.08s-25.99.77-26.32,15.48c0,0,18.91-3.98,26.32-15.48Z"/>
  <path class="cls-3" d="M446.02,97.94c-7.52-5.23-18.74-5.85-29.8-.54-3.61,1.73-7.45,4.91-9.97,7.6-.7.7-1.22,1.15-1.64,1.22-.61.03-.78-.34-1.05-.9-1.07-3.02-2.13-11.87-6.39-14.29l-.16-.09c-1.94-.94-4.28-.24-7.78.58-5.42,1.34-13.62,3.37-18.06,5.06-3.69,1.09-4.61,4.43-4.49,7.97-.03,4.21-.04,10.38,0,14.06.12,9.81,6.9.97,8.64,12.94,1.37,14.78,4.63,54.69,4.42,77.24-.52,6.08,4.48,12.03,10.41,12.94,4.54.4,12.03-.72,16.59-1.22,4-.55,5.69-1.18,4.93-5.14-.9-6.97-3.08-24.44-3.15-33.58.04-1.37-.07-3.28.7-4.17.73-.7,1.81-.16,2.69.19,3.06,1.52,8.14,4.67,11.99,5.96,2.1.73,3.3.82,5.23.51,8.36-.87,24.98-7.6,30.8-22.53,5.66-14.12,7.87-49.79-13.88-63.85ZM427.9,158.08c-4.08,8.54-11.53,8.24-16.59.43-3.93-6.45-4.84-12.73-4.88-20.84-.16-8.26,4.67-27.07,15.2-22.83l.18.09c13.18,8.2,12.76,30.4,6.09,43.15Z"/>
  <path class="cls-2" d="M405.2,246.44s14.65-3.38,13.27-21.9c-1.38-18.51-21.28,23.96-21.28,23.96l8.01-2.06Z"/>
</svg>